# xmcd
#
# Track frame offsets: 
#        150
#        21233
#        40660
#        61040
#        72924
#        90271
#        114603
#        131902
#        142587
#        156677
#        173557
#        194652
#        218363
#        235999
#        249291
#        272766
#        301839
#        319560
#
# Disc length: 4665 seconds
#
# Revision: 0
# Processed by: cddbd v1.5.2PL0 Copyright (c) Steve Scherf et al.
# Submitted via: ExactAudioCopyFreeDBPlugin 1.0
#
DISCID=ee123712
DTITLE=Robert Cray - Collected CD3
DYEAR=2018
DGENRE=Blues
TTITLE0=A Memo
TTITLE1=You Move Me
TTITLE2=Fine Yesterday
TTITLE3=Nobody's Fault But Mine
TTITLE4=The Same Love That Made Me Laugh
TTITLE5=I Don't Care
TTITLE6=Albert Collins, Robert Cray and Johnny Copeland - She's Into Som
TTITLE6=ething
TTITLE7=Chuck Berry and Robert Cray - Brown Eyed Handsome Man (Live)
TTITLE8=Tina Turner and Robert Cray - 634-5789 (Live)
TTITLE9=John Lee Hooker and Robert Cray - Baby Lee
TTITLE10=John Lee Hooker and Robert Cray Band* - Mr. Lucky
TTITLE11=B.B. King and Robert Cray - Playin' With My Friends
TTITLE12=The Memphis Horns and Robert Cray - Rumors
TTITLE13=Love Struck Baby (Live)
TTITLE14=Joe Bonamassa and Robert Cray - Give Me One Reason
TTITLE15=Eric Clapton and Robert Cray - Crossroads (Live)
TTITLE16=Phone Booth (Live)
TTITLE17=Back At The Chicken Shack (Live)
EXTD=
EXTT0=
EXTT1=
EXTT2=
EXTT3=
EXTT4=
EXTT5=
EXTT6=
EXTT7=
EXTT8=
EXTT9=
EXTT10=
EXTT11=
EXTT12=
EXTT13=
EXTT14=
EXTT15=
EXTT16=
EXTT17=
PLAYORDER=
